<svg width="18" height="18" viewBox="0 0 18 18" fill="none" xmlns="http://www.w3.org/2000/svg">
<path d="M11.1642 11.9805C11.1124 11.9287 11.0211 11.9274 10.9696 11.9695C10.9696 11.9695 10.9457 11.9899 10.8819 12.0399C9.73866 12.9349 8.29874 13.4684 6.73421 13.4684C3.01501 13.4684 0 10.4534 0 6.73421C0 3.01501 3.01501 0 6.73421 0C10.4534 0 13.4684 3.01501 13.4684 6.73421C13.4684 8.29057 12.9404 9.72362 12.0538 10.864C11.9995 10.9339 11.9702 10.9686 11.9702 10.9686C11.9241 11.0248 11.9285 11.1121 11.9805 11.1642L12.4286 11.6123C12.4804 11.6641 12.5841 11.695 12.6582 11.6834C12.6582 11.6834 12.6785 11.6759 12.7576 11.6732C13.0572 11.6633 13.36 11.7727 13.5886 12.0014L16.7313 15.144C17.1696 15.5823 17.1696 16.293 16.7313 16.7313C16.293 17.1696 15.5823 17.1696 15.144 16.7313L12.0014 13.5886C11.7694 13.3566 11.6602 13.0484 11.6738 12.7445C11.6771 12.6698 11.6841 12.6506 11.6841 12.6506C11.6962 12.5798 11.6644 12.4807 11.6123 12.4286L11.1642 11.9805ZM6.73421 11.6726C9.46162 11.6726 11.6726 9.46162 11.6726 6.73421C11.6726 4.0068 9.46162 1.79579 6.73421 1.79579C4.0068 1.79579 1.79579 4.0068 1.79579 6.73421C1.79579 9.46162 4.0068 11.6726 6.73421 11.6726Z" fill="#616475"/>
</svg>
